<svg xmlns="http://www.w3.org/2000/svg" version="1.1" xmlns:xlink="http://www.w3.org/1999/xlink" xmlns:svgjs="http://svgjs.dev/svgjs" width="1000" height="1000"><style>
    #light-icon {
      display: inline;
    }
    #dark-icon {
      display: none;
    }

    @media (prefers-color-scheme: dark) {
      #light-icon {
        display: none;
      }
      #dark-icon {
        display: inline;
      }
    }
  </style><g id="light-icon"><svg xmlns="http://www.w3.org/2000/svg" version="1.1" xmlns:xlink="http://www.w3.org/1999/xlink" xmlns:svgjs="http://svgjs.dev/svgjs" width="1000" height="1000"><g><g transform="matrix(1.953125,0,0,1.953125,0,0)"><svg xmlns="http://www.w3.org/2000/svg" version="1.1" xmlns:xlink="http://www.w3.org/1999/xlink" xmlns:svgjs="http://svgjs.dev/svgjs" width="512" height="512"><svg xmlns="http://www.w3.org/2000/svg" version="1.1" viewBox="0 0 512 512">
  <!-- Generator: Adobe Illustrator 28.7.2, SVG Export Plug-In . SVG Version: 1.2.0 Build 154)  -->
  <g>
    <g id="Layer_1">
      <g>
        <path d="M187.4,436.4l-97.1-134-55.8,52.2v81.8H.3V69.2h34.2v248.7l148.4-142.6h37.7l-107.1,106.9,111.2,154.1h-37.2Z"></path>
        <path d="M349.9,441.4c-20.5,0-39.4-5.3-56.8-15.8-17.4-10.6-31-23.9-40.7-40v50.8h-30.7V69.2h34.2v161.5c11.7-17.8,25.8-32.1,42.3-43,16.4-10.9,35.5-16.3,57.3-16.3s35,3.8,49.5,11.5c14.6,7.7,27.1,17.9,37.5,30.8,10.4,12.8,18.3,27.3,23.6,43.5,5.4,16.2,8,32.8,8,49.8s-3.1,35.5-9.3,51.5c-6.2,16-15,30.3-26.4,42.8-11.4,12.5-24.6,22.3-39.5,29.5-14.9,7.2-31.3,10.8-49,10.8ZM341.8,411.3c14.1,0,27.2-2.8,39.2-8.5,12.1-5.7,22.5-13.5,31.2-23.5,8.7-10,15.4-21.2,20.1-33.7,4.7-12.5,7-25.4,7-38.7s-3.9-35.5-11.8-51.7c-7.9-16.1-18.8-29.1-32.7-39-13.9-9.8-30.3-14.7-49-14.7s-25.9,3-37.5,9c-11.6,6-21.8,13.9-30.7,23.7-8.9,9.8-16.2,20.6-21.9,32.2v80.9c1.3,9,4.9,17.4,10.6,25.2,5.7,7.8,12.8,14.6,21.4,20.2,8.6,5.7,17.5,10.2,26.9,13.5,9.4,3.3,18.4,5,27.2,5Z"></path>
        <path d="M481.7,436.4v-49.3h29.7v49.3h-29.7Z"></path>
      </g>
    </g>
  </g>
</svg></svg></g></g></svg></g><g id="dark-icon"><svg xmlns="http://www.w3.org/2000/svg" version="1.1" xmlns:xlink="http://www.w3.org/1999/xlink" xmlns:svgjs="http://svgjs.dev/svgjs" width="1000" height="1000"><g clip-path="url(#SvgjsClipPath1065)"><rect width="1000" height="1000" fill="#f1f1f1"></rect><g transform="matrix(1.7578125,0,0,1.7578125,50,50)"><svg xmlns="http://www.w3.org/2000/svg" version="1.1" xmlns:xlink="http://www.w3.org/1999/xlink" xmlns:svgjs="http://svgjs.dev/svgjs" width="512" height="512"><svg xmlns="http://www.w3.org/2000/svg" version="1.1" viewBox="0 0 512 512">
  <!-- Generator: Adobe Illustrator 28.7.2, SVG Export Plug-In . SVG Version: 1.2.0 Build 154)  -->
  <g>
    <g id="Layer_1">
      <g>
        <path d="M187.4,436.4l-97.1-134-55.8,52.2v81.8H.3V69.2h34.2v248.7l148.4-142.6h37.7l-107.1,106.9,111.2,154.1h-37.2Z"></path>
        <path d="M349.9,441.4c-20.5,0-39.4-5.3-56.8-15.8-17.4-10.6-31-23.9-40.7-40v50.8h-30.7V69.2h34.2v161.5c11.7-17.8,25.8-32.1,42.3-43,16.4-10.9,35.5-16.3,57.3-16.3s35,3.8,49.5,11.5c14.6,7.7,27.1,17.9,37.5,30.8,10.4,12.8,18.3,27.3,23.6,43.5,5.4,16.2,8,32.8,8,49.8s-3.1,35.5-9.3,51.5c-6.2,16-15,30.3-26.4,42.8-11.4,12.5-24.6,22.3-39.5,29.5-14.9,7.2-31.3,10.8-49,10.8ZM341.8,411.3c14.1,0,27.2-2.8,39.2-8.5,12.1-5.7,22.5-13.5,31.2-23.5,8.7-10,15.4-21.2,20.1-33.7,4.7-12.5,7-25.4,7-38.7s-3.9-35.5-11.8-51.7c-7.9-16.1-18.8-29.1-32.7-39-13.9-9.8-30.3-14.7-49-14.7s-25.9,3-37.5,9c-11.6,6-21.8,13.9-30.7,23.7-8.9,9.8-16.2,20.6-21.9,32.2v80.9c1.3,9,4.9,17.4,10.6,25.2,5.7,7.8,12.8,14.6,21.4,20.2,8.6,5.7,17.5,10.2,26.9,13.5,9.4,3.3,18.4,5,27.2,5Z"></path>
        <path d="M481.7,436.4v-49.3h29.7v49.3h-29.7Z"></path>
      </g>
    </g>
  </g>
</svg></svg></g></g><defs><clipPath id="SvgjsClipPath1065"><rect width="1000" height="1000" x="0" y="0" rx="100" ry="100"></rect></clipPath></defs></svg></g></svg>